<svg xmlns="http://www.w3.org/2000/svg" version="1.1" xmlns:xlink="http://www.w3.org/1999/xlink" xmlns:svgjs="http://svgjs.dev/svgjs" width="1500" height="1500" viewBox="0 0 1500 1500"><g transform="matrix(1,0,0,1,-0.323615160350073,-0.3236151603499593)"><svg viewBox="0 0 343 343" data-background-color="#ffffff" preserveAspectRatio="xMidYMid meet" height="1500" width="1500" xmlns="http://www.w3.org/2000/svg" xmlns:xlink="http://www.w3.org/1999/xlink"><g id="tight-bounds" transform="matrix(1,0,0,1,0.0740000000000407,0.07400000000001228)"><svg viewBox="0 0 342.85155851775386 342.85155851775386" height="342.85155851775386" width="342.85155851775386"><g><svg></svg></g><g><svg viewBox="0 0 342.85155851775386 342.85155851775386" height="342.85155851775386" width="342.85155851775386"><g><path d="M0 171.426c0-94.676 76.75-171.426 171.426-171.426 94.676 0 171.426 76.75 171.426 171.426 0 94.676-76.75 171.426-171.426 171.426-94.676 0-171.426-76.75-171.426-171.426zM171.426 340.003c93.103 0 168.577-75.475 168.577-168.577 0-93.103-75.475-168.577-168.577-168.578-93.103 0-168.577 75.475-168.578 168.578 0 93.103 75.475 168.577 168.578 168.577z" data-fill-palette-color="tertiary" fill="#2257bf" stroke="transparent"></path><ellipse rx="164.56874808852186" ry="164.56874808852186" cx="171.42577925887693" cy="171.42577925887693" fill="#2257bf" stroke="transparent" stroke-width="0" fill-opacity="1" data-fill-palette-color="tertiary"></ellipse></g><g transform="matrix(1,0,0,1,64.84655864529837,130.07930861339335)"><svg viewBox="0 0 213.1584412271571 82.69294129096714" height="82.69294129096714" width="213.1584412271571"><g><svg viewBox="0 0 213.1584412271571 82.69294129096714" height="82.69294129096714" width="213.1584412271571"><g><svg viewBox="0 0 213.1584412271571 82.69294129096714" height="82.69294129096714" width="213.1584412271571"><g transform="matrix(1,0,0,1,0,51.107555194090224)"><svg viewBox="0 0 213.1584412271571 31.585386096876917" height="31.585386096876917" width="213.1584412271571"><g id="textblocktransform"><svg viewBox="0 0 213.1584412271571 31.585386096876917" height="31.585386096876917" width="213.1584412271571" id="textblock"><g><svg viewBox="0 0 213.1584412271571 31.585386096876917" height="31.585386096876917" width="213.1584412271571"><g transform="matrix(1,0,0,1,0,0)"><svg width="213.1584412271571" viewBox="1.2 -36.3 248.33 36.8" height="31.585386096876917" data-palette-color="#ffffff"><path d="M10.6-25.5L10.6-25.5Q12.05-25.5 13.45-25.2 14.85-24.9 15.95-24.5L15.95-24.5Q17.25-24.05 18.35-23.55L18.35-23.55 16.65-19.65Q15.65-20.1 14.65-20.45L14.65-20.45Q13.8-20.75 12.78-21.03 11.75-21.3 10.75-21.3L10.75-21.3Q9.6-21.3 8.78-20.75 7.95-20.2 7.95-19.1L7.95-19.1Q7.95-16.25 12.1-14.65L12.1-14.65Q13.65-14.05 14.9-13.38 16.15-12.7 17.03-11.8 17.9-10.9 18.35-9.73 18.8-8.55 18.8-6.95L18.8-6.95Q18.8-5.55 18.23-4.2 17.65-2.85 16.53-1.8 15.4-0.75 13.78-0.13 12.15 0.5 10.1 0.5L10.1 0.5Q8.45 0.5 6.85 0.13 5.25-0.25 3.98-0.7 2.7-1.15 1.95-1.55L1.95-1.55 1.2-1.9 3.05-6.1 3.7-5.75Q4.35-5.35 5.35-4.9 6.35-4.45 7.5-4.08 8.65-3.7 9.6-3.7L9.6-3.7Q11.35-3.7 12.2-4.4 13.05-5.1 13.05-6.25L13.05-6.25Q13.05-7.55 12.13-8.63 11.2-9.7 9.35-10.4L9.35-10.4Q5.5-11.85 3.83-13.7 2.15-15.55 2.15-18.5L2.15-18.5Q2.15-19.9 2.8-21.18 3.45-22.45 4.58-23.43 5.7-24.4 7.25-24.95 8.8-25.5 10.6-25.5ZM33.75-25.5Q39.5-25.5 42.1-22.1 44.7-18.7 44.7-12.75L44.7-12.75Q44.7-9.95 44-7.53 43.3-5.1 41.87-3.33 40.45-1.55 38.3-0.53 36.15 0.5 33.3 0.5L33.3 0.5Q30.45 0.5 28.37-0.38 26.3-1.25 24.95-2.9 23.6-4.55 22.97-6.9 22.35-9.25 22.35-12.2L22.35-12.2Q22.35-15.05 23.05-17.48 23.75-19.9 25.17-21.68 26.6-23.45 28.75-24.48 30.9-25.5 33.75-25.5L33.75-25.5ZM33.25-21.3Q31.8-21.3 30.87-20.65 29.95-20 29.42-18.82 28.9-17.65 28.7-16.07 28.5-14.5 28.5-12.7L28.5-12.7Q28.5-10.85 28.72-9.2 28.95-7.55 29.55-6.33 30.15-5.1 31.17-4.4 32.2-3.7 33.8-3.7L33.8-3.7Q35.25-3.7 36.17-4.35 37.1-5 37.62-6.18 38.15-7.35 38.35-8.9 38.55-10.45 38.55-12.25L38.55-12.25Q38.55-14.1 38.32-15.75 38.1-17.4 37.5-18.65 36.9-19.9 35.87-20.6 34.85-21.3 33.25-21.3L33.25-21.3ZM66.4-22.1L63.2-19.05Q62.45-19.9 61.67-20.5 60.9-21.1 59.6-21.1L59.6-21.1Q58.85-21.1 57.92-20.88 57-20.65 56.2-19.78 55.4-18.9 54.87-17.2 54.35-15.5 54.35-12.6L54.35-12.6Q54.35-9.65 54.87-7.93 55.4-6.2 56.22-5.25 57.05-4.3 58-4.03 58.95-3.75 59.85-3.75L59.85-3.75Q60.55-3.75 61.3-3.88 62.05-4 62.75-4.17 63.45-4.35 63.97-4.5 64.5-4.65 64.75-4.75L64.75-4.75 66.15-1.15Q66-1.1 65.47-0.85 64.95-0.6 64.05-0.35 63.15-0.1 61.9 0.13 60.65 0.35 59.1 0.35L59.1 0.35Q56.2 0.35 54.15-0.53 52.1-1.4 50.77-3 49.45-4.6 48.82-6.85 48.2-9.1 48.2-11.85L48.2-11.85Q48.2-15.15 49.07-17.7 49.95-20.25 51.5-21.98 53.05-23.7 55.15-24.6 57.25-25.5 59.65-25.5L59.65-25.5Q62-25.5 63.62-24.6 65.25-23.7 66.4-22.1L66.4-22.1ZM75.44 0.2Q72.79 0.2 71.39-1.38 69.99-2.95 69.99-5.45L69.99-5.45 69.99-24.9 75.69-24.9 75.69-5.95Q75.69-4.8 76.04-4.4 76.39-4 77.09-4L77.09-4Q77.29-4 77.52-4 77.74-4 77.94-4.05L77.94-4.05Q78.14-4.05 78.39-4.1L78.39-4.1 78.99-0.5Q78.64-0.3 78.09-0.15L78.09-0.15Q77.64 0 76.97 0.1 76.29 0.2 75.44 0.2L75.44 0.2ZM72.94-36Q74.54-36 75.39-35.05 76.24-34.1 76.24-32.6L76.24-32.6Q76.24-31.1 75.37-30.1 74.49-29.1 72.79-29.1L72.79-29.1Q71.19-29.1 70.32-30.08 69.44-31.05 69.44-32.45L69.44-32.45Q69.44-34 70.32-35 71.19-36 72.94-36L72.94-36ZM103.09-23.85L103.09-12.05Q103.09-9.05 103.47-7.03 103.84-5 104.29-3.75L104.29-3.75Q104.84-2.25 105.49-1.4L105.49-1.4 101.04 0.4Q100.39-0.25 99.84-1.15L99.84-1.15Q99.39-1.95 98.99-3.08 98.59-4.2 98.49-5.75L98.49-5.75Q97.64-2.75 95.77-1.23 93.89 0.3 90.69 0.3L90.69 0.3Q88.34 0.3 86.62-0.58 84.89-1.45 83.74-3.08 82.59-4.7 82.04-7 81.49-9.3 81.49-12.1L81.49-12.1Q81.49-14.95 82.37-17.38 83.24-19.8 84.82-21.55 86.39-23.3 88.59-24.3 90.79-25.3 93.44-25.3L93.44-25.3Q94.94-25.3 96.57-25.08 98.19-24.85 99.59-24.6 100.99-24.35 101.97-24.13 102.94-23.9 103.09-23.85L103.09-23.85ZM91.64-3.7Q92.89-3.7 93.94-4.55 94.99-5.4 95.77-6.78 96.54-8.15 96.97-9.93 97.39-11.7 97.39-13.55L97.39-13.55 97.39-20.75Q96.89-20.9 95.89-21.1 94.89-21.3 94.09-21.3L94.09-21.3Q92.19-21.3 90.97-20.65 89.74-20 88.99-18.85 88.24-17.7 87.94-16.1 87.64-14.5 87.64-12.6L87.64-12.6Q87.64-10.85 87.74-9.25 87.84-7.65 88.27-6.4 88.69-5.15 89.49-4.42 90.29-3.7 91.64-3.7L91.64-3.7ZM115.09 0.2Q112.24 0.2 110.89-1.38 109.54-2.95 109.54-5.4L109.54-5.4 109.54-35.25 115.24-36.3 115.24-5.95Q115.24-4.8 115.69-4.35 116.14-3.9 116.99-3.9L116.99-3.9Q117.49-3.9 117.96-3.95 118.44-4 118.84-4.1L118.84-4.1Q119.29-4.2 119.64-4.3L119.64-4.3 120.34-0.7Q119.69-0.45 118.89-0.25L118.89-0.25Q118.19-0.05 117.24 0.08 116.29 0.2 115.09 0.2L115.09 0.2ZM157.54 0L151.89 0 151.89-16.3Q151.89-18.4 151.24-19.63 150.59-20.85 148.99-20.85L148.99-20.85Q148.04-20.85 147.06-20.33 146.09-19.8 145.29-18.8 144.49-17.8 143.99-16.4 143.49-15 143.49-13.3L143.49-13.3 143.49 0 137.84 0 137.84-16.3Q137.84-18.4 137.19-19.63 136.53-20.85 134.94-20.85L134.94-20.85Q133.94-20.85 132.96-20.28 131.99-19.7 131.21-18.6 130.44-17.5 129.96-15.93 129.49-14.35 129.49-12.4L129.49-12.4 129.49 0 123.79 0 123.79-12.6Q123.79-15.6 123.39-17.63 122.99-19.65 122.54-20.9L122.54-20.9Q121.99-22.35 121.34-23.25L121.34-23.25 125.84-25.05Q126.34-24.5 126.84-23.7L126.84-23.7Q127.24-23 127.64-21.98 128.03-20.95 128.28-19.65L128.28-19.65Q129.53-22.65 131.81-23.98 134.09-25.3 136.64-25.3L136.64-25.3Q139.19-25.3 140.61-24 142.04-22.7 142.74-20.65L142.74-20.65Q144.09-23.15 146.21-24.23 148.34-25.3 150.69-25.3L150.69-25.3Q152.64-25.3 153.96-24.68 155.29-24.05 156.06-22.93 156.84-21.8 157.19-20.23 157.54-18.65 157.54-16.7L157.54-16.7 157.54 0ZM162.28-11.85Q162.28-15.2 163.21-17.75 164.13-20.3 165.76-22.03 167.38-23.75 169.58-24.63 171.78-25.5 174.33-25.5L174.33-25.5Q176.58-25.5 178.16-24.95 179.73-24.4 180.73-23.45 181.73-22.5 182.21-21.2 182.68-19.9 182.68-18.4L182.68-18.4Q182.68-16.6 181.68-14.98 180.68-13.35 178.81-12.13 176.93-10.9 174.28-10.18 171.63-9.45 168.33-9.4L168.33-9.4Q168.48-8.25 168.81-7.23 169.13-6.2 169.76-5.43 170.38-4.65 171.38-4.2 172.38-3.75 173.88-3.75L173.88-3.75Q174.98-3.75 176.23-4 177.48-4.25 178.53-4.6L178.53-4.6Q179.78-5 180.98-5.5L180.98-5.5 182.48-1.95Q181.18-1.3 179.68-0.8L179.68-0.8Q178.38-0.35 176.68 0 174.98 0.35 173.08 0.35L173.08 0.35Q170.18 0.35 168.13-0.53 166.08-1.4 164.78-3 163.48-4.6 162.88-6.85 162.28-9.1 162.28-11.85L162.28-11.85ZM173.88-21.6Q172.23-21.6 171.16-20.83 170.08-20.05 169.43-18.82 168.78-17.6 168.51-16.07 168.23-14.55 168.18-13L168.18-13Q170.58-13.1 172.26-13.63 173.93-14.15 174.98-14.93 176.03-15.7 176.51-16.6 176.98-17.5 176.98-18.4L176.98-18.4Q176.98-19.85 176.13-20.73 175.28-21.6 173.88-21.6L173.88-21.6ZM209.93-1.4L205.48 0.4Q205.38 0.35 205.03-0.08 204.68-0.5 204.26-1.25 203.83-2 203.43-3.13 203.03-4.25 202.93-5.75L202.93-5.75Q202.08-2.75 200.21-1.23 198.33 0.3 195.13 0.3L195.13 0.3Q192.78 0.3 191.06-0.58 189.33-1.45 188.18-3.08 187.03-4.7 186.48-7 185.93-9.3 185.93-12.1L185.93-12.1Q185.93-14.95 186.81-17.38 187.68-19.8 189.26-21.55 190.83-23.3 193.03-24.3 195.23-25.3 197.88-25.3L197.88-25.3Q198.78-25.3 199.81-25.2 200.83-25.1 201.83-24.95L201.83-24.95 201.83-36.25 207.53-35.25 207.53-12.05Q207.53-9.05 207.88-7.08 208.23-5.1 208.68-3.88 209.13-2.65 209.51-2.1 209.88-1.55 209.93-1.4L209.93-1.4ZM196.08-3.75Q197.33-3.75 198.38-4.6 199.43-5.45 200.21-6.83 200.98-8.2 201.41-9.95 201.83-11.7 201.83-13.55L201.83-13.55 201.83-20.75Q201.33-20.9 200.33-21.1 199.33-21.3 198.53-21.3L198.53-21.3Q196.63-21.3 195.41-20.65 194.18-20 193.43-18.85 192.68-17.7 192.38-16.1 192.08-14.5 192.08-12.6L192.08-12.6Q192.08-10.85 192.18-9.25 192.28-7.65 192.71-6.43 193.13-5.2 193.93-4.48 194.73-3.75 196.08-3.75L196.08-3.75ZM219.48 0.2Q216.83 0.2 215.43-1.38 214.03-2.95 214.03-5.45L214.03-5.45 214.03-24.9 219.73-24.9 219.73-5.95Q219.73-4.8 220.08-4.4 220.43-4 221.13-4L221.13-4Q221.33-4 221.55-4 221.78-4 221.98-4.05L221.98-4.05Q222.18-4.05 222.43-4.1L222.43-4.1 223.03-0.5Q222.68-0.3 222.13-0.15L222.13-0.15Q221.68 0 221 0.1 220.33 0.2 219.48 0.2L219.48 0.2ZM216.98-36Q218.58-36 219.43-35.05 220.28-34.1 220.28-32.6L220.28-32.6Q220.28-31.1 219.4-30.1 218.53-29.1 216.83-29.1L216.83-29.1Q215.23-29.1 214.35-30.08 213.48-31.05 213.48-32.45L213.48-32.45Q213.48-34 214.35-35 215.23-36 216.98-36L216.98-36ZM247.13-23.85L247.13-12.05Q247.13-9.05 247.5-7.03 247.88-5 248.33-3.75L248.33-3.75Q248.88-2.25 249.53-1.4L249.53-1.4 245.08 0.4Q244.43-0.25 243.88-1.15L243.88-1.15Q243.43-1.95 243.03-3.08 242.63-4.2 242.53-5.75L242.53-5.75Q241.68-2.75 239.8-1.23 237.93 0.3 234.73 0.3L234.73 0.3Q232.38 0.3 230.65-0.58 228.93-1.45 227.78-3.08 226.63-4.7 226.08-7 225.53-9.3 225.53-12.1L225.53-12.1Q225.53-14.95 226.4-17.38 227.28-19.8 228.85-21.55 230.43-23.3 232.63-24.3 234.83-25.3 237.48-25.3L237.48-25.3Q238.98-25.3 240.6-25.08 242.23-24.85 243.63-24.6 245.03-24.35 246-24.13 246.98-23.9 247.13-23.85L247.13-23.85ZM235.68-3.7Q236.93-3.7 237.98-4.55 239.03-5.4 239.8-6.78 240.58-8.15 241-9.93 241.43-11.7 241.43-13.55L241.43-13.55 241.43-20.75Q240.93-20.9 239.93-21.1 238.93-21.3 238.13-21.3L238.13-21.3Q236.23-21.3 235-20.65 233.78-20 233.03-18.85 232.28-17.7 231.98-16.1 231.68-14.5 231.68-12.6L231.68-12.6Q231.68-10.85 231.78-9.25 231.88-7.65 232.3-6.4 232.73-5.15 233.53-4.42 234.33-3.7 235.68-3.7L235.68-3.7Z" opacity="1" transform="matrix(1,0,0,1,0,0)" fill="#ffffff" class="wordmark-text-0" data-fill-palette-color="quaternary" id="text-0"></path></svg></g></svg></g></svg></g></svg></g><g transform="matrix(1,0,0,1,87.05481006398192,0)"><svg viewBox="0 0 39.048821099193276 43.651003585883906" height="43.651003585883906" width="39.048821099193276"><g><svg xmlns="http://www.w3.org/2000/svg" xmlns:xlink="http://www.w3.org/1999/xlink" version="1.1" x="0" y="0" viewBox="8 3.0000000000000018 84 93.89999999999999" enable-background="new 0 0 100 100" xml:space="preserve" height="43.651003585883906" width="39.048821099193276" class="icon-icon-0" data-fill-palette-color="quaternary" id="icon-0"><path d="M92 30.9c0-4.7-3.8-8.6-8.6-8.6-2.7 0-5.1 1.3-6.7 3.3L57.9 14.8c0.4-1 0.6-2 0.6-3.2 0-4.7-3.8-8.6-8.6-8.6s-8.6 3.8-8.6 8.6c0 1.1 0.2 2.2 0.6 3.1L23.3 25.7c-1.6-2-4-3.3-6.7-3.3-4.7 0-8.6 3.8-8.6 8.6 0 4.2 3.1 7.7 7.1 8.4l0 21.3C11.1 61.3 8 64.8 8 69.1c0 4.7 3.8 8.6 8.6 8.6 2.7 0 5.1-1.2 6.6-3.2L42 85.3c-0.4 0.9-0.6 2-0.6 3 0 4.7 3.8 8.6 8.6 8.6s8.6-3.8 8.6-8.6c0-1.1-0.2-2.1-0.6-3l18.8-10.9c1.6 1.9 4 3.2 6.6 3.2 4.7 0 8.6-3.8 8.6-8.6 0-4.3-3.2-7.9-7.3-8.5l0-21.2C88.8 38.8 92 35.2 92 30.9zM83.4 24.8c3.4 0 6.1 2.7 6.1 6.1S86.8 37 83.4 37c-3.4 0-6.1-2.7-6.1-6.1S80 24.8 83.4 24.8zM50 5.5c3.4 0 6.1 2.7 6.1 6.1 0 1-0.3 2-0.7 2.9 0 0-0.1 0.1-0.1 0.1 0 0 0 0.1 0 0.1-1.1 1.8-3 3-5.2 3-3.4 0-6.1-2.7-6.1-6.1S46.6 5.5 50 5.5zM10.5 30.9c0-3.4 2.7-6.1 6.1-6.1 3.4 0 6.1 2.7 6.1 6.1S20 37 16.6 37C13.2 37 10.5 34.3 10.5 30.9zM16.6 75.2c-3.4 0-6.1-2.7-6.1-6.1 0-3.4 2.7-6.1 6.1-6.1 3.4 0 6.1 2.7 6.1 6.1C22.7 72.4 20 75.2 16.6 75.2zM50 94.5c-3.4 0-6.1-2.7-6.1-6.1 0-3.4 2.7-6.1 6.1-6.1 3.4 0 6.1 2.7 6.1 6.1C56.1 91.7 53.4 94.5 50 94.5zM56.8 83.2c-1.6-2-4-3.4-6.8-3.4-2.8 0-5.2 1.3-6.8 3.4L24.5 72.4c0.4-1 0.7-2.1 0.7-3.3 0-4.4-3.3-8-7.5-8.5l0-21.2c4.2-0.5 7.5-4.1 7.5-8.5 0-1.1-0.2-2.2-0.6-3.2l18.7-10.9c1.6 2 4 3.3 6.7 3.3 2.7 0 5.1-1.3 6.7-3.3l18.8 10.9c-0.4 1-0.6 2-0.6 3.2 0 4.3 3.2 7.9 7.3 8.5l0 21.2c-4.1 0.6-7.3 4.2-7.3 8.5 0 1.2 0.2 2.3 0.7 3.3L56.8 83.2zM89.5 69.1c0 3.4-2.7 6.1-6.1 6.1-3.4 0-6.1-2.7-6.1-6.1 0-3.4 2.7-6.1 6.1-6.1C86.8 63 89.5 65.7 89.5 69.1zM69.5 64.8c0.5 0.4 0.6 1.2 0.2 1.7-0.2 0.3-0.6 0.4-0.9 0.4-0.3 0-0.5-0.1-0.8-0.3-5.1-4.2-10.5-6.9-11.6-7.4-0.6-0.3-0.9-0.8-0.9-1.4v-8c0-0.4 0.2-0.8 0.5-1 0.7-0.5 1.1-1.3 1.1-2.1v-8.3c0-3.5-2.8-6.3-6.3-6.3h-1.8c-3.5 0-6.3 2.8-6.3 6.3v8.3c0 0.8 0.4 1.6 1.1 2.1 0.3 0.2 0.5 0.6 0.5 1v8c0 0.6-0.3 1.2-0.9 1.4-1 0.5-6.5 3.3-11.6 7.4-0.5 0.4-1.3 0.4-1.7-0.2-0.4-0.5-0.4-1.3 0.2-1.7 4.7-3.9 9.8-6.6 11.6-7.5v-6.9c-1.1-0.9-1.7-2.3-1.7-3.7v-8.3c0-4.8 3.9-8.7 8.7-8.7h1.8c4.8 0 8.7 3.9 8.7 8.7v8.3c0 1.4-0.6 2.8-1.7 3.7v6.9C59.7 58.2 64.8 61 69.5 64.8z" fill="#ffffff" data-fill-palette-color="quaternary"></path></svg></g></svg></g><g></g></svg></g></svg></g></svg></g></svg></g><defs></defs></svg><rect width="342.85155851775386" height="342.85155851775386" fill="none" stroke="none" visibility="hidden"></rect></g></svg></g></svg>